<svg width="95" height="112" viewBox="0 0 95 112" fill="none" xmlns="http://www.w3.org/2000/svg">
<path d="M94.0646 72.1891C94.0646 66.9071 90.3009 62.4878 85.3144 61.4714V49.6574C85.3144 48.5811 84.7868 47.5735 83.9021 46.9603C83.0175 46.3472 81.8883 46.2067 80.8809 46.585L74.6182 48.9335C70.5056 44.6579 65.5066 41.4376 60.0285 39.4608C65.4117 35.472 68.9078 29.0747 68.9078 21.8755C68.9078 9.81313 59.0947 0 47.0323 0C34.9699 0 25.1568 9.81313 25.1568 21.8755C25.1568 29.0747 28.653 35.472 34.0361 39.4608C28.5578 41.4379 23.559 44.6582 19.4464 48.9335L13.1837 46.585C12.1761 46.2067 11.0469 46.3472 10.1625 46.9603C9.27783 47.5735 8.7502 48.5811 8.7502 49.6574V61.4714C3.76368 62.4878 0 66.9068 0 72.1891C0 77.4714 3.76368 81.8905 8.7502 82.9068V95.5959C8.7502 96.9638 9.59875 98.1881 10.8793 98.6683L45.8801 111.794C46.6182 112.069 47.4462 112.069 48.1843 111.794L83.1851 98.6683C84.4656 98.1881 85.3142 96.9638 85.3142 95.5959V82.9068C90.3009 81.8905 94.0646 77.4712 94.0646 72.1891ZM31.7195 21.8755C31.7195 13.432 38.5888 6.56265 47.0323 6.56265C55.4758 6.56265 62.3451 13.432 62.3451 21.8755C62.3451 30.319 55.4758 37.1883 47.0323 37.1883C38.5888 37.1883 31.7195 30.319 31.7195 21.8755ZM47.0323 43.751C54.72 43.751 62.0627 46.5294 67.7919 51.4934L47.0323 59.2782L26.2727 51.4934C32.0021 46.5294 39.3448 43.751 47.0323 43.751V43.751ZM6.56265 72.1891C6.56265 69.7767 8.52532 67.814 10.9377 67.814H13.1253V76.5642H10.9377C8.52532 76.5642 6.56265 74.6015 6.56265 72.1891ZM15.3128 83.0168C17.806 82.5087 19.6879 80.299 19.6879 77.658V66.7202C19.6879 64.0792 17.806 61.8696 15.3128 61.3614V54.3923L43.751 65.0566V103.986L15.3128 93.3222V83.0168ZM50.3136 103.986V65.0566L78.7518 54.3923V61.3614C76.2586 61.8696 74.3767 64.0792 74.3767 66.7202V77.658C74.3767 80.299 76.2586 82.5087 78.7518 83.0168V93.3219L50.3136 103.986ZM83.1269 76.5642H80.9393V67.814H83.1269C85.5393 67.814 87.502 69.7767 87.502 72.1891C87.502 74.6015 85.5395 76.5642 83.1269 76.5642Z" fill="url(#paint0_linear)"/>
<defs>
<linearGradient id="paint0_linear" x1="47.0323" y1="0" x2="47.0323" y2="112" gradientUnits="userSpaceOnUse">
<stop/>
<stop offset="1" stop-color="#B69453"/>
</linearGradient>
</defs>
</svg>
