<svg width="112" height="116" viewBox="0 0 112 116" fill="none" xmlns="http://www.w3.org/2000/svg">
<path d="M3.28126 115.148H62.7839C64.5963 115.148 66.0652 113.637 66.0652 111.774V104.577C66.0652 100.179 63.3214 96.4291 59.5027 95.0367V90.6467C59.5027 85.3063 55.2763 80.962 50.0819 80.962H15.9833C10.7888 80.962 6.56251 85.3063 6.56251 90.6467V95.0367C2.74378 96.4291 0 100.179 0 104.577V111.774C0 113.637 1.46887 115.148 3.28126 115.148ZM15.9833 87.709H50.0819C51.6576 87.709 52.9402 89.0268 52.9402 90.6467V94.4568H13.1259V90.6467C13.1259 89.0268 14.4076 87.709 15.9833 87.709ZM6.56251 104.577C6.56251 102.717 8.0348 101.204 9.84377 101.204H56.2206C58.0304 101.204 59.5027 102.717 59.5027 104.577V108.401H6.56251V104.577Z" fill="url(#paint0_linear)"/>
<path d="M37.7979 70.2312C41.0527 74.6756 47.2341 75.5963 51.5835 72.2298C54.4802 69.9879 55.8278 66.4071 55.433 62.9475C58.2545 62.4538 60.9812 61.6465 63.5738 60.558L94.2962 102.511C97.5518 106.958 103.734 107.874 108.082 104.51C112.417 101.153 113.29 94.7952 110.025 90.3368L79.3033 48.3836C81.0362 46.1232 82.5444 43.6537 83.7859 41.0033C86.9484 42.3667 90.6629 41.981 93.5272 39.7637C97.8637 36.4069 98.7362 30.0491 95.4712 25.5907L79.6818 4.02948C76.4168 -0.428948 70.2328 -1.32503 65.8963 2.03175C62.9995 4.27371 61.652 7.85363 62.0468 11.3132C49.6822 13.4787 39.1404 21.6374 33.6955 33.2539C30.539 31.8931 26.8408 32.2621 23.9526 34.497C19.6058 37.8617 18.7359 44.201 22.0086 48.67L37.7979 70.2312ZM74.7428 53.3744L79.1247 59.3579L73.8815 63.4158L69.4997 57.4331C71.3565 56.2357 73.1099 54.8775 74.7428 53.3744ZM104.134 99.1192C102.688 100.238 100.627 99.9398 99.5385 98.4533L77.8284 68.8063L83.0716 64.7485L104.782 94.3946C105.87 95.881 105.579 98 104.134 99.1192ZM69.844 7.42228C71.2941 6.29955 73.3543 6.60702 74.4395 8.08819L90.228 29.6494C91.3166 31.135 91.0261 33.2548 89.5803 34.3732C88.1319 35.495 86.0768 35.1972 84.9857 33.7073L69.1963 12.146C68.1077 10.6596 68.3982 8.54062 69.844 7.42228ZM65.0426 17.6912C66.4636 19.6327 77.2081 34.3055 78.653 36.2778C74.1746 47.47 64.1411 55.2386 52.438 56.5696L38.8276 37.9821C43.3111 26.7767 53.3284 19.0239 65.0426 17.6912ZM27.9003 39.8876C29.3453 38.7683 31.4021 39.0609 32.495 40.5535L48.2843 62.1147C48.2843 62.1147 48.2843 62.1147 48.2843 62.1156C49.3721 63.6011 49.0815 65.7201 47.6366 66.8393C46.1908 67.9577 44.1297 67.659 43.0411 66.1734L27.2518 44.6122C26.1614 43.1222 26.4511 41.0094 27.9003 39.8876Z" fill="url(#paint1_linear)"/>
<defs>
<linearGradient id="paint0_linear" x1="33.0326" y1="80.962" x2="33.0326" y2="115.148" gradientUnits="userSpaceOnUse">
<stop/>
<stop offset="1" stop-color="#B69453"/>
</linearGradient>
<linearGradient id="paint1_linear" x1="66.0136" y1="0" x2="66.0136" y2="106.541" gradientUnits="userSpaceOnUse">
<stop/>
<stop offset="1" stop-color="#B69453"/>
</linearGradient>
</defs>
</svg>
