<svg width="112" height="112" viewBox="0 0 112 112" fill="none" xmlns="http://www.w3.org/2000/svg">
<g clip-path="url(#clip0)">
<path d="M108.739 19.9071C108.732 19.9071 108.726 19.9062 108.719 19.9062H78.9688V16.625C78.9688 11.1973 74.5527 6.78125 69.125 6.78125H42.875C37.4473 6.78125 33.0312 11.1973 33.0312 16.625V19.9062H3.28125C1.45435 19.9062 0 21.4033 0 23.1875V95.375C0 100.803 4.41602 105.219 9.84375 105.219H102.156C107.584 105.219 112 100.803 112 95.375V23.2567C112 23.2524 112 23.2482 112 23.2439C111.874 21.0889 110.549 19.9191 108.739 19.9071ZM39.5938 16.625C39.5938 14.816 41.066 13.3438 42.875 13.3438H69.125C70.934 13.3438 72.4062 14.816 72.4062 16.625V19.9062H39.5938V16.625ZM104.166 26.4688L93.9762 57.0374C93.5293 58.3798 92.2783 59.2812 90.8641 59.2812H72.4062V56C72.4062 54.1876 70.9374 52.7188 69.125 52.7188H42.875C41.0626 52.7188 39.5938 54.1876 39.5938 56V59.2812H21.1359C19.7217 59.2812 18.4707 58.3798 18.0238 57.0374L7.83398 26.4688H104.166ZM65.8438 59.2812V65.8438H46.1562V59.2812H65.8438ZM105.438 95.375C105.438 97.184 103.965 98.6562 102.156 98.6562H9.84375C8.03479 98.6562 6.5625 97.184 6.5625 95.375V43.4073L11.798 59.1129C13.1395 63.1393 16.8925 65.8438 21.1359 65.8438H39.5938V69.125C39.5938 70.9374 41.0626 72.4062 42.875 72.4062H69.125C70.9374 72.4062 72.4062 70.9374 72.4062 69.125V65.8438H90.8641C95.1075 65.8438 98.8605 63.1393 100.202 59.1129L105.438 43.4073V95.375Z" fill="url(#paint0_linear)"/>
<rect x="-2.30518" y="-3.29865" width="166.55" height="5.6875" transform="rotate(45.1383 -2.30518 -3.29865)" fill="url(#paint1_linear)"/>
</g>
<defs>
<linearGradient id="paint0_linear" x1="56" y1="6.78125" x2="56" y2="105.219" gradientUnits="userSpaceOnUse">
<stop/>
<stop offset="1" stop-color="#B69453"/>
</linearGradient>
<linearGradient id="paint1_linear" x1="80.9701" y1="-3.29865" x2="80.9701" y2="2.38886" gradientUnits="userSpaceOnUse">
<stop/>
<stop offset="1" stop-color="#B69453"/>
</linearGradient>
<clipPath id="clip0">
<rect width="112" height="112" fill="white"/>
</clipPath>
</defs>
</svg>
