<svg width="16" height="15" viewBox="0 0 16 15" fill="none" xmlns="http://www.w3.org/2000/svg">
<path d="M6.76781 7.5C6.76781 6.67157 7.45377 6 8.29995 6C9.14613 6 9.83209 6.67157 9.83209 7.5C9.83209 8.32843 9.14613 9 8.29995 9C7.45377 9 6.76781 8.32843 6.76781 7.5Z" fill="white"/>
<path fill-rule="evenodd" clip-rule="evenodd" d="M15.4499 7.49998C15.9241 7.3143 15.924 7.31409 15.9239 7.31385L15.923 7.31182L15.9213 7.30752L15.9154 7.29356C15.9104 7.28192 15.9034 7.26564 15.8943 7.24504C15.8761 7.20385 15.8494 7.14533 15.8141 7.07195C15.7434 6.92526 15.6379 6.71871 15.4952 6.47224C15.2105 5.98029 14.7748 5.32375 14.1697 4.66552C12.9587 3.34827 11.0434 2 8.29987 2C5.55633 2 3.64103 3.34827 2.43011 4.66552C1.825 5.32375 1.38931 5.98029 1.10457 6.47224C0.961908 6.71872 0.856341 6.92526 0.785707 7.07195C0.750371 7.14533 0.723719 7.20386 0.705488 7.24505C0.696371 7.26564 0.689355 7.28192 0.684406 7.29356L0.678527 7.30752L0.676742 7.31182L0.676137 7.31329C0.676041 7.31353 0.675722 7.31431 1.14991 7.5L0.675722 7.31431L0.599854 7.5L0.675722 7.68569L1.14991 7.5C0.675722 7.68569 0.675626 7.68546 0.675722 7.68569L0.676137 7.68671L0.676742 7.68818L0.678527 7.69248L0.684406 7.70644C0.689355 7.71808 0.696371 7.73436 0.705488 7.75495C0.723719 7.79614 0.750371 7.85467 0.785707 7.92805C0.856341 8.07474 0.961908 8.28128 1.10457 8.52776C1.38931 9.01971 1.825 9.67625 2.43011 10.3345C3.64103 11.6517 5.55633 13 8.29987 13C11.0434 13 12.9587 11.6517 14.1697 10.3345C14.7748 9.67625 15.2105 9.01971 15.4952 8.52776C15.6379 8.28129 15.7434 8.07474 15.8141 7.92805C15.8494 7.85467 15.8761 7.79615 15.8943 7.75496C15.9034 7.73436 15.9104 7.71808 15.9154 7.70644L15.9213 7.69248L15.923 7.68818L15.9236 7.68671C15.9237 7.68647 15.9241 7.68566 15.4499 7.49998L15.9241 7.6857L15.9999 7.5L15.9239 7.31385L15.4499 7.49998ZM8.29995 5C6.88965 5 5.74638 6.11929 5.74638 7.5C5.74638 8.88071 6.88965 10 8.29995 10C9.71024 10 10.8535 8.88071 10.8535 7.5C10.8535 6.11929 9.71024 5 8.29995 5Z" fill="white"/>
</svg>
