<svg width="99" height="109" viewBox="0 0 99 109" fill="none" xmlns="http://www.w3.org/2000/svg">
<path d="M96.2607 80.1208C92.8582 76.0365 86.6497 75.3859 82.4212 78.6701C81.0794 79.7118 79.6744 80.6752 78.2182 81.5643L71.7569 67.5657C76.8748 67.2328 80.9335 63.1093 80.9335 58.0849C80.9335 52.8437 76.5176 48.5797 71.0898 48.5797H67.8085V35.9064H71.0898C72.899 35.9064 74.371 37.3275 74.371 39.0748C74.371 40.8246 75.8401 42.2432 77.6523 42.2432C79.4644 42.2432 80.9335 40.8246 80.9335 39.0748C80.9335 33.8336 76.5176 29.5696 71.0898 29.5696H32.2507L28.3495 8.20689C27.4034 3.02764 22.5929 -0.547991 17.4008 0.0692101C14.6877 0.390696 12.3004 1.73325 10.6786 3.84973C9.07934 5.93664 8.4301 8.59914 8.89669 11.155L16.8119 54.4991C17.8418 60.139 21.8635 64.6269 27.1369 66.5592L20.2111 81.5643C18.7551 80.6752 17.3503 79.7121 16.0087 78.6705C11.7805 75.3861 5.57212 76.0361 2.16837 80.1212C-1.23297 84.2057 -0.558786 90.2005 3.67119 93.4846C15.8494 102.94 32.0238 108.147 49.2147 108.147C66.4068 108.147 82.5811 102.94 94.7581 93.4846C98.9881 90.2005 99.6622 84.2055 96.2607 80.1208V80.1208ZM61.246 48.5799H50.3085V35.9066H61.246V48.5799ZM43.746 35.9064V48.5797H35.722L33.4076 35.9064H43.746ZM23.2747 53.3988L15.3594 10.0547C15.2015 9.19015 15.4126 8.32539 15.9538 7.61926C16.4943 6.91398 17.2921 6.46639 18.2006 6.35845C18.3152 6.34494 18.43 6.33818 18.544 6.33818C20.1166 6.33818 21.5752 7.60342 21.8863 9.30737L29.737 52.2983C30.0137 53.8126 31.3761 54.9165 32.9684 54.9165H71.0898C72.899 54.9165 74.371 56.3376 74.371 58.0849C74.371 59.8319 72.899 61.2533 71.0898 61.2533H32.9688C28.1826 61.2533 24.1057 57.9501 23.2747 53.3988ZM33.846 67.59H64.5837L72.4281 84.5854C58.0879 90.9121 40.3416 90.9121 26.0019 84.5854L33.846 67.59ZM91.8513 86.4193C91.7568 87.2608 91.3285 88.0162 90.6456 88.5464C79.6302 97.1001 64.9162 101.811 49.2147 101.811C33.5142 101.811 18.8004 97.0999 7.78369 88.5464C7.10097 88.0162 6.67266 87.2608 6.57816 86.4193C6.48322 85.578 6.73369 84.7515 7.28231 84.0924C7.93025 83.3147 8.88291 82.9102 9.84366 82.9102C10.5653 82.9102 11.2913 83.1383 11.896 83.6081C21.8806 91.3607 35.134 95.6302 49.2147 95.6302C63.2955 95.6302 76.5489 91.3607 86.534 83.6079C87.9436 82.5135 90.013 82.7309 91.147 84.0918C91.6958 84.7513 91.9463 85.5778 91.8513 86.4193V86.4193Z" fill="url(#paint0_linear)"/>
<defs>
<linearGradient id="paint0_linear" x1="49.2146" y1="0" x2="49.2146" y2="108.147" gradientUnits="userSpaceOnUse">
<stop/>
<stop offset="1" stop-color="#B69453"/>
</linearGradient>
</defs>
</svg>
