<svg width="113" height="109" viewBox="0 0 113 109" fill="none" xmlns="http://www.w3.org/2000/svg">
<path d="M57.4712 84.4773L51.2858 80.5511C51.5404 80.249 51.7589 79.9159 51.9317 79.555C54.0843 75.0607 52.6386 69.6814 48.4946 66.7644L40.9274 61.4387L42.9964 57.0073C45.255 52.1694 43.6142 46.467 39.0948 43.4479L33.682 39.8321C32.3768 38.9601 31.5977 37.5245 31.5977 35.9922C31.5977 35.9226 31.6566 35.866 31.7286 35.866C36.968 35.866 41.2302 31.7502 41.2302 26.691V22.7086C41.2302 20.4233 40.5224 18.2237 39.2143 16.3601C40.2387 14.7316 40.8289 12.8215 40.8289 10.7809C40.8289 4.83619 35.8202 0 29.6639 0H25.1763C20.3559 0 15.829 1.8169 12.4288 5.11607C9.28091 8.17002 7.45337 12.1503 7.21781 16.4172C2.61741 20.2341 0 25.719 0 31.6212V35.9296C0 41.2059 4.44562 45.4986 9.91009 45.4986C11.8563 45.4986 13.6716 44.9519 15.2047 44.0123C15.1648 44.3171 15.1421 44.6268 15.1421 44.9418V56.2571C15.1421 58.1097 15.5887 59.8959 16.4061 61.5017L14.3227 64.9201C12.2423 68.3302 11.3668 72.2137 11.7911 76.1502C12.2153 80.0869 13.8999 83.7131 16.6629 86.6366C17.2619 87.2706 17.904 87.8582 18.5818 88.3996H10.9327C4.90426 88.3998 0 93.1358 0 98.9569V102.488C0 104.815 1.3827 106.813 3.60868 107.704C4.35455 108.002 5.12449 108.147 5.88283 108.147C7.38769 108.147 8.84658 107.574 9.97905 106.48L12.4268 104.117C12.704 103.849 13.0722 103.702 13.4643 103.702H21.6002C22.8091 103.702 23.7894 102.755 23.7894 101.588C23.7894 100.421 22.8091 99.4739 21.6002 99.4739H13.4643C11.9027 99.4739 10.4346 100.061 9.33083 101.127L6.88308 103.49C6.25762 104.094 5.55642 103.907 5.28408 103.797C5.01197 103.689 4.37841 103.343 4.37841 102.488V98.9569C4.37841 95.467 7.31873 92.6278 10.9327 92.6278H44.8787C46.0876 92.6278 47.0679 91.6812 47.0679 90.5139C47.0679 89.3466 46.0876 88.4 44.8787 88.4H42.1715L47.5294 83.2265L55.0662 88.0102C56.8915 89.1686 57.9811 91.1198 57.9811 93.229C57.9811 96.6726 55.0797 99.4741 51.5135 99.4741H41.3028C40.094 99.4741 39.1136 100.421 39.1136 101.588C39.1136 102.755 40.094 103.702 41.3028 103.702H51.5135C57.494 103.702 62.3595 99.0038 62.3595 93.229C62.3597 89.6918 60.5322 86.4201 57.4712 84.4773ZM47.9574 77.7806C47.8788 77.9451 47.7433 78.0123 47.6437 78.0398C47.5445 78.0673 47.3923 78.0791 47.2354 77.9795L23.0948 62.6569C20.8563 61.2362 19.52 58.8439 19.52 56.2575V44.9422C19.52 43.1938 20.9932 41.7713 22.8039 41.7713C24.6145 41.7713 26.0877 43.1938 26.0877 44.9422V55.1515C26.0877 55.8269 26.4219 56.4619 26.9872 56.8597L45.9151 70.1814C48.3775 71.9139 49.2365 75.1099 47.9574 77.7806ZM36.6035 46.9246C39.3849 48.7827 40.3948 52.2922 39.0048 55.2697L37.3126 58.8946L30.4665 54.0762V44.942C30.4665 44.0237 30.2909 43.1448 29.9731 42.3328C30.3468 42.6877 30.7524 43.0158 31.1911 43.309L36.6035 46.9246ZM36.8515 26.6908C36.8515 29.4185 34.5533 31.6379 31.7284 31.6379C29.2421 31.6379 27.219 33.5912 27.219 35.9919C27.219 37.2051 27.4789 38.3851 27.9568 39.4706C26.5949 38.2737 24.7862 37.5431 22.8041 37.5431C21.63 37.5431 20.5172 37.8002 19.5218 38.2578C19.7155 37.512 19.82 36.7324 19.82 35.9296V31.067C19.82 25.8258 24.236 21.5618 29.6639 21.5618C32.06 21.5618 34.2801 20.8268 36.1009 19.5815C36.5908 20.5454 36.8518 21.6113 36.8518 22.7086V26.6908H36.8515ZM9.91009 41.2708C6.85987 41.2708 4.37841 38.8747 4.37841 35.9296V31.6212C4.37841 26.6922 6.69109 22.1319 10.7234 19.1095C11.2606 18.7068 11.5734 18.0861 11.5702 17.4293C11.5524 13.908 12.9594 10.5942 15.532 8.09815C18.1043 5.60226 21.5293 4.22759 25.1761 4.22759H29.6637C33.406 4.22759 36.4503 7.1674 36.4503 10.7807C36.4503 14.394 33.406 17.3338 29.6637 17.3338C21.8216 17.3338 15.4413 23.4945 15.4413 31.0668V35.9294C15.4413 38.8747 12.9599 41.2708 9.91009 41.2708V41.2708ZM35.9794 88.3998H30.7226C26.6128 88.3998 22.6668 86.7186 19.8968 83.7873C15.5339 79.1705 14.81 72.4508 18.0953 67.0655L19.272 65.1348C19.7151 65.5147 20.1858 65.8696 20.69 66.1897L43.7931 80.8549L35.9794 88.3998Z" fill="url(#paint0_linear)"/>
<path d="M107.732 81.6918L105.196 72.1122C104.324 68.8164 102.014 66.0576 98.86 64.5434C98.2556 64.2531 97.6319 64.0155 96.9961 63.8285C98.3254 62.1008 99.1133 59.9626 99.1133 57.6495C99.1133 51.9238 94.2892 47.2656 88.3595 47.2656C82.4298 47.2656 77.6059 51.9238 77.6059 57.6495C77.6059 61.4649 79.7496 64.804 82.9335 66.6089L75.2234 69.7374C73.9307 70.2621 72.8652 71.2062 72.2043 72.3864L70.4768 70.7183C71.0709 69.6645 71.4089 68.4575 71.4089 67.1756C71.4089 63.0774 67.9561 59.7433 63.7119 59.7433C59.4675 59.7433 56.0146 63.0774 56.0146 67.1756C56.0146 71.274 59.4675 74.6081 63.7119 74.6081C65.0394 74.6081 66.2895 74.2817 67.3808 73.708L77.093 83.0863C77.5205 83.4989 78.0807 83.7055 78.641 83.7055C79.2012 83.7055 79.7614 83.4989 80.1889 83.0863C80.7432 82.5511 80.9357 81.8008 80.7715 81.114H86.3351L88.0151 88.9162L72.4919 91.1033C69.2933 91.5542 66.881 94.2477 66.881 97.3693C66.881 100.861 69.8228 103.702 73.4387 103.702H99.11H99.1267C106.273 103.649 112.087 97.9916 112.087 91.0908C112.087 87.4718 110.509 84.0866 107.732 81.6918V81.6918ZM88.3591 51.4934C91.8745 51.4934 94.7345 54.255 94.7345 57.6495C94.7345 61.044 91.8745 63.8054 88.3591 63.8054C84.8436 63.8054 81.9839 61.044 81.9839 57.6495C81.9839 54.255 84.8438 51.4934 88.3591 51.4934ZM60.3924 67.1758C60.3924 65.409 61.8813 63.9714 63.7112 63.9714C65.541 63.9714 67.0299 65.409 67.0299 67.1758C67.0299 68.9428 65.541 70.3805 63.7112 70.3805C61.8813 70.3805 60.3924 68.9428 60.3924 67.1758ZM92.494 76.8862H77.5978C76.9301 76.8862 76.3298 76.5281 76.0312 75.9515C75.8118 75.5283 75.7847 75.0509 75.9548 74.6074C76.1249 74.1639 76.4673 73.8185 76.9189 73.635L90.4821 68.1315C92.5547 67.2906 94.8973 67.3625 96.9103 68.3289C98.9233 69.2954 100.397 71.0557 100.954 73.159L103.206 81.67L91.9754 86.5425L90.8066 81.1142H92.4938C93.7027 81.1142 94.683 80.1676 94.683 79.0003C94.683 77.833 93.7029 76.8862 92.494 76.8862ZM71.2587 97.3693C71.2587 96.332 72.0604 95.4365 73.1235 95.2869L89.4685 92.984L92.1976 99.4737H73.4381C72.2364 99.4739 71.2587 98.5298 71.2587 97.3693V97.3693ZM99.1094 99.4739H96.9234L93.2095 90.6422L105.369 85.367C106.869 86.911 107.709 88.9391 107.709 91.0908C107.709 95.6782 103.844 99.439 99.1094 99.4739V99.4739Z" fill="url(#paint1_linear)"/>
<path d="M31.4524 99.4745C30.8744 99.4745 30.3096 99.6986 29.9024 100.094C29.4952 100.487 29.2632 101.03 29.2632 101.588C29.2632 102.144 29.4952 102.69 29.9024 103.083C30.3118 103.476 30.8744 103.702 31.4524 103.702C32.0282 103.702 32.593 103.476 33.0002 103.083C33.4071 102.69 33.6416 102.144 33.6416 101.588C33.6416 101.03 33.4074 100.487 33.0002 100.094C32.593 99.6986 32.0282 99.4745 31.4524 99.4745Z" fill="url(#paint2_linear)"/>
<defs>
<linearGradient id="paint0_linear" x1="31.1797" y1="0" x2="31.1797" y2="108.147" gradientUnits="userSpaceOnUse">
<stop/>
<stop offset="1" stop-color="#B69453"/>
</linearGradient>
<linearGradient id="paint1_linear" x1="84.051" y1="47.2656" x2="84.051" y2="103.702" gradientUnits="userSpaceOnUse">
<stop/>
<stop offset="1" stop-color="#B69453"/>
</linearGradient>
<linearGradient id="paint2_linear" x1="31.4524" y1="99.4745" x2="31.4524" y2="103.702" gradientUnits="userSpaceOnUse">
<stop/>
<stop offset="1" stop-color="#B69453"/>
</linearGradient>
</defs>
</svg>
