<svg width="103" height="52" viewBox="0 0 103 52" fill="none" xmlns="http://www.w3.org/2000/svg">
<line y1="24.5" x2="100" y2="24.5" stroke="#B69453"/>
<circle cx="41.1971" cy="25.6888" r="25.1888" stroke="#B69453"/>
<g filter="url(#filter0_i)">
<path d="M15.2974 14.7449C15.6489 14.7449 16.0049 14.7581 16.3652 14.7844C16.7256 14.8108 17.0508 14.8855 17.3408 15.0085C17.6309 15.1316 17.8682 15.3206 18.0527 15.5754C18.2373 15.8215 18.3296 16.1687 18.3296 16.6169C18.3296 17.0652 18.2373 17.4167 18.0527 17.6716C17.8682 17.9177 17.6309 18.1023 17.3408 18.2253C17.0508 18.3484 16.7256 18.4231 16.3652 18.4495C16.0049 18.4758 15.6489 18.489 15.2974 18.489H12.1597V22.075H13.8208C14.1724 22.075 14.5239 22.0881 14.8755 22.1145C15.2358 22.1321 15.5522 22.2024 15.8247 22.3254C16.106 22.4397 16.3345 22.6199 16.5103 22.866C16.686 23.1033 16.7739 23.4373 16.7739 23.8679C16.7739 24.3074 16.686 24.6458 16.5103 24.8831C16.3345 25.1204 16.106 25.3005 15.8247 25.4236C15.5522 25.5378 15.2358 25.6082 14.8755 25.6345C14.5239 25.6521 14.1724 25.6609 13.8208 25.6609H12.1597V29.4578H15.2974C15.6489 29.4578 16.0049 29.4709 16.3652 29.4973C16.7256 29.5237 17.0508 29.5984 17.3408 29.7214C17.6309 29.8357 17.8682 30.0203 18.0527 30.2751C18.2373 30.5212 18.3296 30.864 18.3296 31.3035C18.3296 31.7605 18.2329 32.1165 18.0396 32.3713C17.855 32.6262 17.6177 32.8152 17.3276 32.9382C17.0376 33.0613 16.7124 33.136 16.3521 33.1624C15.9917 33.1887 15.6401 33.2019 15.2974 33.2019H10.1294C9.63721 33.2019 9.25488 33.114 8.98242 32.9382C8.71875 32.7625 8.52539 32.5339 8.40234 32.2527C8.2793 31.9626 8.20459 31.6375 8.17822 31.2771C8.16064 30.9167 8.15186 30.5476 8.15186 30.1697V17.7771C8.15186 17.3992 8.16064 17.03 8.17822 16.6697C8.20459 16.3093 8.2793 15.9885 8.40234 15.7073C8.52539 15.4172 8.71875 15.1843 8.98242 15.0085C9.25488 14.8328 9.63721 14.7449 10.1294 14.7449H15.2974ZM27.2153 18.7263L27.0044 18.5154H23.2075C22.856 18.5154 22.5044 18.4978 22.1528 18.4626C21.8013 18.4275 21.4805 18.3528 21.1904 18.2385C20.9092 18.1155 20.6763 17.9397 20.4917 17.7112C20.3159 17.4739 20.228 17.1531 20.228 16.7488C20.228 16.2917 20.3159 15.9314 20.4917 15.6677C20.6763 15.3953 20.9092 15.1931 21.1904 15.0613C21.4805 14.9207 21.8013 14.8328 22.1528 14.7976C22.5044 14.7625 22.856 14.7449 23.2075 14.7449H30.1421C30.4761 14.7449 30.7705 14.8064 31.0254 14.9294C31.2891 15.0437 31.5088 15.1975 31.6846 15.3909C31.8604 15.5842 31.9922 15.7996 32.0801 16.0369C32.1768 16.2742 32.2251 16.5115 32.2251 16.7488C32.2251 16.8806 32.2119 17.0081 32.1855 17.1311C32.1592 17.2542 32.1196 17.364 32.0669 17.4607L25.2905 29.2468L25.4751 29.4314H29.272C29.6147 29.4314 29.9619 29.449 30.3135 29.4841C30.665 29.5193 30.9858 29.6028 31.2759 29.7346C31.5659 29.8577 31.7988 30.0422 31.9746 30.2883C32.1592 30.5344 32.2515 30.8728 32.2515 31.3035C32.2515 31.7429 32.1592 32.0901 31.9746 32.345C31.7988 32.5911 31.5659 32.78 31.2759 32.9119C30.9858 33.0349 30.665 33.114 30.3135 33.1492C29.9619 33.1843 29.6147 33.2019 29.272 33.2019H22.3374C22.0034 33.2019 21.7046 33.1492 21.4409 33.0437C21.186 32.9294 20.9663 32.7844 20.7817 32.6086C20.606 32.4329 20.4697 32.2307 20.373 32.0022C20.2764 31.7737 20.228 31.5408 20.228 31.3035C20.228 31.1453 20.2368 31.009 20.2544 30.8948C20.2808 30.7717 20.3335 30.6443 20.4126 30.5125L27.2153 18.7263ZM40.3726 14.6394C41.3394 14.6394 42.1699 14.7493 42.8643 14.969C43.5674 15.1887 44.1562 15.4744 44.6309 15.8259C45.1143 16.1775 45.501 16.5774 45.791 17.0256C46.0811 17.4651 46.3008 17.9133 46.4502 18.3704C46.6084 18.8274 46.7095 19.2668 46.7534 19.6887C46.8062 20.1106 46.8325 20.4753 46.8325 20.783C46.8325 20.9148 46.8193 21.0774 46.793 21.2708C46.7754 21.4553 46.7007 21.6355 46.5688 21.8113C46.437 21.9871 46.2261 22.1365 45.936 22.2595C45.6548 22.3826 45.2505 22.4441 44.7231 22.4441C44.5474 22.4441 44.3276 22.4353 44.064 22.4177C43.8003 22.3914 43.5454 22.3342 43.2993 22.2463C43.0532 22.1497 42.8423 22.0178 42.6665 21.8508C42.4907 21.675 42.4028 21.4333 42.4028 21.1257C42.4028 20.6511 42.3721 20.2249 42.3105 19.8469C42.2578 19.469 42.1567 19.1482 42.0073 18.8845C41.8579 18.6208 41.6514 18.4187 41.3877 18.2781C41.124 18.1375 40.7856 18.0671 40.3726 18.0671C39.9419 18.0671 39.6079 18.1594 39.3706 18.344C39.1421 18.5198 38.9751 18.7131 38.8696 18.9241C38.7466 19.179 38.6763 19.4646 38.6587 19.781V28.1394C38.6763 28.5261 38.7466 28.8645 38.8696 29.1545C38.9751 29.4094 39.1421 29.6423 39.3706 29.8533C39.6079 30.0642 39.9419 30.1697 40.3726 30.1697C40.7856 30.1697 41.124 30.0862 41.3877 29.9192C41.6514 29.7434 41.8579 29.5105 42.0073 29.2205C42.1567 28.9304 42.2578 28.5964 42.3105 28.2185C42.3721 27.8406 42.4028 27.4451 42.4028 27.032C42.4028 26.9001 42.4248 26.7639 42.4688 26.6233C42.5127 26.4827 42.6138 26.3552 42.772 26.241C42.9302 26.1179 43.1631 26.0168 43.4707 25.9377C43.7783 25.8586 44.1958 25.8191 44.7231 25.8191C45.2505 25.8191 45.6548 25.8806 45.936 26.0037C46.2261 26.1179 46.437 26.2542 46.5688 26.4124C46.7007 26.5618 46.7754 26.7112 46.793 26.8606C46.8193 27.0012 46.8325 27.0935 46.8325 27.1375C46.8325 28.1042 46.6699 28.97 46.3447 29.7346C46.0195 30.4905 45.5581 31.1321 44.9604 31.6594C44.3716 32.1868 43.6641 32.5911 42.8379 32.8723C42.0205 33.1448 41.1196 33.281 40.1353 33.281C39.9771 33.281 39.7178 33.2678 39.3574 33.2415C39.0059 33.2151 38.6104 33.1448 38.1709 33.0305C37.7314 32.9163 37.2788 32.7449 36.813 32.5164C36.3472 32.2878 35.9209 31.9714 35.5342 31.5671C35.1562 31.1541 34.8442 30.6443 34.5981 30.0378C34.3521 29.4226 34.229 28.6755 34.229 27.7966V20.4402C34.229 19.7195 34.3169 19.0823 34.4927 18.5286C34.6685 17.9749 34.897 17.4958 35.1782 17.0916C35.4683 16.6785 35.7979 16.3357 36.167 16.0632C36.5361 15.782 36.9141 15.5491 37.3008 15.3645C38.1973 14.9426 39.2212 14.7009 40.3726 14.6394ZM52.8706 25.239H57.063L55.1118 18.1726H54.8218L52.8706 25.239ZM61.1499 26.531C61.1675 27.1287 61.1895 27.7395 61.2158 28.3635C61.2422 28.9875 61.2554 29.5896 61.2554 30.1697V30.5652C61.2554 30.8992 61.2422 31.2244 61.2158 31.5408C61.1982 31.8484 61.1323 32.1296 61.0181 32.3845C60.9038 32.6306 60.7236 32.8284 60.4775 32.9778C60.2314 33.1272 59.8843 33.2019 59.436 33.2019C58.979 33.2019 58.6274 33.1272 58.3813 32.9778C58.1353 32.8284 57.9507 32.6306 57.8276 32.3845C57.7134 32.1384 57.6431 31.8572 57.6167 31.5408C57.5991 31.2244 57.5903 30.8992 57.5903 30.5652V28.7195H52.3169V30.5652C52.3169 30.8992 52.3037 31.2244 52.2773 31.5408C52.2598 31.8572 52.1895 32.1384 52.0664 32.3845C51.9521 32.6306 51.772 32.8284 51.5259 32.9778C51.2798 33.1272 50.9282 33.2019 50.4712 33.2019C50.0142 33.2019 49.6626 33.1272 49.4165 32.9778C49.1704 32.8284 48.9902 32.6306 48.876 32.3845C48.7617 32.1296 48.6958 31.8484 48.6782 31.5408C48.6606 31.2244 48.6519 30.8992 48.6519 30.5652V30.1697C48.6519 29.8972 48.6519 29.6072 48.6519 29.2996C48.6606 28.9919 48.6694 28.6799 48.6782 28.3635C48.687 28.0471 48.6958 27.7351 48.7046 27.4275C48.7134 27.1111 48.7222 26.8123 48.731 26.531C49.1704 25.0017 49.6318 23.4548 50.1152 21.8904C50.5986 20.3171 51.0601 18.7615 51.4995 17.2234C51.5874 16.8982 51.6929 16.5862 51.8159 16.2874C51.939 15.9797 52.1016 15.7161 52.3037 15.4963C52.5059 15.2678 52.7651 15.0876 53.0815 14.9558C53.3979 14.8152 53.8022 14.7449 54.2944 14.7449H55.6128C56.0962 14.7449 56.4961 14.8152 56.8125 14.9558C57.1377 15.0876 57.4014 15.2678 57.6035 15.4963C57.8057 15.7161 57.9639 15.9797 58.0781 16.2874C58.2012 16.5862 58.311 16.8982 58.4077 17.2234L61.1499 26.531ZM67.478 19.3855C67.4868 19.7546 67.5923 20.0886 67.7944 20.3875C68.0054 20.6775 68.2778 20.9543 68.6118 21.218C68.9546 21.4817 69.3413 21.741 69.772 21.9958C70.2026 22.2419 70.6421 22.5056 71.0903 22.7869C71.5474 23.0593 71.9912 23.3582 72.4219 23.6833C72.8525 24.0085 73.2393 24.3777 73.582 24.7908C73.9248 25.2039 74.2017 25.6697 74.4126 26.1882C74.6235 26.7068 74.7378 27.2957 74.7554 27.9548V28.0603C74.7554 28.781 74.6675 29.4094 74.4917 29.9456C74.3159 30.4817 74.083 30.9431 73.793 31.3298C73.5029 31.7166 73.1646 32.0374 72.7778 32.2922C72.3911 32.5383 71.9824 32.7361 71.5518 32.8855C71.1299 33.0349 70.6992 33.1404 70.2598 33.2019C69.8291 33.2634 69.4204 33.2986 69.0337 33.3074H68.9019C68.1548 33.3074 67.5 33.2327 66.9375 33.0833C66.375 32.9338 65.8916 32.7361 65.4873 32.49C65.083 32.2351 64.7446 31.9451 64.4722 31.6199C64.2085 31.2947 63.9976 30.9607 63.8394 30.6179C63.6812 30.2664 63.5669 29.9192 63.4966 29.5764C63.4263 29.2336 63.3911 28.9128 63.3911 28.614C63.3911 28.3064 63.4438 28.0383 63.5493 27.8098C63.6548 27.5813 63.791 27.3967 63.958 27.2561C64.1338 27.1067 64.3315 26.9968 64.5513 26.9265C64.7798 26.8562 65.0171 26.821 65.2632 26.821C65.4917 26.821 65.7246 26.8562 65.9619 26.9265C66.208 26.9968 66.4277 27.1067 66.6211 27.2561C66.8232 27.3967 66.9858 27.5813 67.1089 27.8098C67.2407 28.0295 67.311 28.2888 67.3198 28.5876C67.3374 29.2468 67.4868 29.6995 67.7681 29.9456C68.0493 30.1829 68.4536 30.3015 68.981 30.3015C69.2446 30.2927 69.4863 30.262 69.7061 30.2092C69.9346 30.1477 70.1279 30.0466 70.2861 29.906C70.4443 29.7566 70.5674 29.5632 70.6553 29.3259C70.752 29.0798 70.8003 28.7722 70.8003 28.4031C70.8003 27.946 70.6948 27.533 70.4839 27.1638C70.2817 26.7947 70.0137 26.4519 69.6797 26.1355C69.3457 25.8191 68.9634 25.5203 68.5327 25.239C68.1021 24.949 67.6626 24.6633 67.2144 24.3821C66.7661 24.092 66.3267 23.7932 65.896 23.4856C65.4741 23.1692 65.0918 22.8264 64.749 22.4573C64.4062 22.0881 64.1294 21.6794 63.9185 21.2312C63.7163 20.783 63.6108 20.2732 63.6021 19.7019V19.491C63.6108 18.5505 63.7339 17.7683 63.9712 17.1443C64.2173 16.5203 64.5732 16.0237 65.0391 15.6545C65.5137 15.2854 66.0938 15.0261 66.7793 14.8767C67.4648 14.7185 68.2515 14.6394 69.1392 14.6394H69.4819C70.2905 14.6394 70.9761 14.7273 71.5386 14.9031C72.1011 15.0789 72.5669 15.303 72.936 15.5754C73.314 15.8479 73.6084 16.1555 73.8193 16.4983C74.0391 16.8411 74.2017 17.1794 74.3071 17.5134C74.4126 17.8474 74.4785 18.1594 74.5049 18.4495C74.5312 18.7395 74.5444 18.9724 74.5444 19.1482C74.5444 19.4119 74.4917 19.6536 74.3862 19.8733C74.2896 20.0842 74.1533 20.2644 73.9775 20.4138C73.8105 20.5632 73.6084 20.6819 73.3711 20.7698C73.1426 20.8489 72.8921 20.8884 72.6196 20.8884C72.4087 20.8884 72.1978 20.8489 71.9868 20.7698C71.7759 20.6819 71.5869 20.572 71.4199 20.4402C71.2529 20.3083 71.1167 20.1589 71.0112 19.9919C70.9058 19.8162 70.853 19.6404 70.853 19.4646C70.853 18.7439 70.7212 18.2429 70.4575 17.9617C70.2026 17.6804 69.8247 17.5398 69.3237 17.5398C69.0864 17.5398 68.8535 17.553 68.625 17.5793C68.4053 17.6057 68.2075 17.6804 68.0317 17.8035C67.8647 17.9177 67.7285 18.0979 67.623 18.344C67.5264 18.5901 67.478 18.9373 67.478 19.3855ZM77.5239 17.7771C77.5239 17.3992 77.5415 17.03 77.5767 16.6697C77.6118 16.3093 77.6953 15.9885 77.8271 15.7073C77.9678 15.4172 78.1699 15.1843 78.4336 15.0085C78.6973 14.8328 79.062 14.7449 79.5278 14.7449C79.9849 14.7449 80.3452 14.8328 80.6089 15.0085C80.8813 15.1843 81.0835 15.4172 81.2153 15.7073C81.356 15.9885 81.4438 16.3093 81.479 16.6697C81.5142 17.03 81.5317 17.3992 81.5317 17.7771V21.9167H85.144V17.7771C85.144 17.3992 85.1616 17.03 85.1968 16.6697C85.2319 16.3093 85.3154 15.9885 85.4473 15.7073C85.5879 15.4172 85.79 15.1843 86.0537 15.0085C86.3174 14.8328 86.6821 14.7449 87.1479 14.7449C87.605 14.7449 87.9653 14.8328 88.229 15.0085C88.5015 15.1843 88.7036 15.4172 88.8354 15.7073C88.9761 15.9885 89.064 16.3093 89.0991 16.6697C89.1343 17.03 89.1519 17.3992 89.1519 17.7771V30.1697C89.1519 30.5564 89.1343 30.9299 89.0991 31.2903C89.064 31.6506 88.9761 31.9758 88.8354 32.2659C88.7036 32.5471 88.5015 32.7756 88.229 32.9514C87.9653 33.1184 87.605 33.2019 87.1479 33.2019C86.6821 33.2019 86.3174 33.1184 86.0537 32.9514C85.79 32.7756 85.5879 32.5471 85.4473 32.2659C85.3154 31.9758 85.2319 31.6506 85.1968 31.2903C85.1616 30.9299 85.144 30.5564 85.144 30.1697V25.7927H81.5317V30.1697C81.5317 30.5564 81.5142 30.9299 81.479 31.2903C81.4438 31.6506 81.356 31.9758 81.2153 32.2659C81.0835 32.5471 80.8813 32.7756 80.6089 32.9514C80.3452 33.1184 79.9849 33.2019 79.5278 33.2019C79.062 33.2019 78.6973 33.1184 78.4336 32.9514C78.1699 32.7756 77.9678 32.5471 77.8271 32.2659C77.6953 31.9758 77.6118 31.6506 77.5767 31.2903C77.5415 30.9299 77.5239 30.5564 77.5239 30.1697V17.7771Z" fill="white"/>
</g>
<defs>
<filter id="filter0_i" x="8.15186" y="14.6394" width="81" height="22.668" filterUnits="userSpaceOnUse" color-interpolation-filters="sRGB">
<feFlood flood-opacity="0" result="BackgroundImageFix"/>
<feBlend mode="normal" in="SourceGraphic" in2="BackgroundImageFix" result="shape"/>
<feColorMatrix in="SourceAlpha" type="matrix" values="0 0 0 0 0 0 0 0 0 0 0 0 0 0 0 0 0 0 127 0" result="hardAlpha"/>
<feOffset dy="4"/>
<feGaussianBlur stdDeviation="2"/>
<feComposite in2="hardAlpha" operator="arithmetic" k2="-1" k3="1"/>
<feColorMatrix type="matrix" values="0 0 0 0 0 0 0 0 0 0 0 0 0 0 0 0 0 0 0.25 0"/>
<feBlend mode="normal" in2="shape" result="effect1_innerShadow"/>
</filter>
</defs>
</svg>
